<?xml version="1.0" encoding="UTF-8" standalone="no"?>
<svg
   id="Layer_1"
   data-name="Layer 1"
   viewBox="0 0 28 25"
   version="1.1"
   sodipodi:docname="readme-logo.svg"
   inkscape:version="1.3.2 (091e20e, 2023-11-25)"
   width="336"
   height="300"
   xmlns:inkscape="http://www.inkscape.org/namespaces/inkscape"
   xmlns:sodipodi="http://sodipodi.sourceforge.net/DTD/sodipodi-0.dtd"
   xmlns="http://www.w3.org/2000/svg"
   xmlns:svg="http://www.w3.org/2000/svg">
  <defs
     id="defs1" />
  <sodipodi:namedview
     id="namedview1"
     pagecolor="#ffffff"
     bordercolor="#000000"
     borderopacity="0.25"
     inkscape:showpageshadow="2"
     inkscape:pageopacity="0.0"
     inkscape:pagecheckerboard="0"
     inkscape:deskcolor="#d1d1d1"
     inkscape:lockguides="false"
     inkscape:zoom="2.5839509"
     inkscape:cx="120.35832"
     inkscape:cy="142.80457"
     inkscape:window-width="1800"
     inkscape:window-height="1097"
     inkscape:window-x="0"
     inkscape:window-y="44"
     inkscape:window-maximized="0"
     inkscape:current-layer="Layer_1" />
  <path
     id="path1"
     d="M 16.279134 -0.045898438 C 15.731454 -0.058248094 15.190135 0.026659534 14.676758 0.19482422 L 7.0255534 0.19482422 C 4.2685561 0.19482422 2.0255534 2.437827 2.0255534 5.1948242 L 2.0255534 19.194824 C 2.0255534 21.951821 4.2685561 24.194824 7.0255534 24.194824 L 14.861654 24.194824 L 15.673503 24.560547 C 18.088796 25.64874 20.939314 24.567643 22.027507 22.152344 L 27.552246 9.8876953 C 28.64044 7.4723994 27.561479 4.6218856 25.146159 3.5336914 L 18.137207 0.37760417 C 17.533383 0.10555582 16.903004 -0.031830742 16.279134 -0.045898438 z M 7.0255534 2.1948242 L 15.025553 2.1948242 C 16.679552 2.1948242 18.025553 3.5408259 18.025553 5.1948242 L 18.025553 19.194824 C 18.025553 20.848823 16.679552 22.194824 15.025553 22.194824 L 7.0255534 22.194824 C 5.371555 22.194824 4.0255534 20.848823 4.0255534 19.194824 L 4.0255534 5.1948242 C 4.0255534 3.5408259 5.371555 2.1948242 7.0255534 2.1948242 z M 19.574707 3.1316732 L 24.356608 5.2869466 C 25.805649 5.9397845 26.453943 7.6491413 25.801107 9.0981445 L 20.274251 21.364746 C 19.887391 22.223421 19.128778 22.796907 18.273926 22.988444 C 19.344104 22.070713 20.025553 20.71185 20.025553 19.194824 L 20.025553 5.1948242 C 20.025553 4.4587286 19.861582 3.7615813 19.574707 3.1316732 z M 11.02653 8.1948242 C 9.9215311 8.1948242 9.0265299 9.0898259 9.0265299 10.194824 C 9.0265299 10.573824 9.1376616 10.922935 9.3196615 11.224935 C 9.2236616 11.209935 9.1275298 11.194824 9.0265299 11.194824 C 7.7815312 11.194824 6.8026383 12.330885 7.070638 13.622884 C 7.2216379 14.349883 7.8035775 14.957952 8.5245768 15.133952 C 9.2655761 15.314952 9.9595486 15.080815 10.428548 14.618815 C 10.232548 15.278814 9.9746273 15.902848 9.6266276 16.443848 C 9.4176278 16.768847 9.6725941 17.195801 10.058594 17.195801 L 11.993652 17.195801 C 12.379652 17.195801 12.634618 16.768847 12.425618 16.443848 C 12.077619 15.902848 11.820535 15.278814 11.623535 14.618815 C 12.091535 15.080815 12.786507 15.314952 13.527507 15.133952 C 14.248506 14.957952 14.830608 14.349883 14.981608 13.622884 L 14.982585 13.622884 C 15.249584 12.330885 14.270529 11.194824 13.02653 11.194824 C 12.92653 11.194824 12.830561 11.210935 12.733561 11.224935 C 12.915561 10.922935 13.02653 10.572824 13.02653 10.194824 C 13.02653 9.0898259 12.131529 8.1948242 11.02653 8.1948242 z " />
</svg>
