<?xml version="1.0" encoding="UTF-8" standalone="no"?>
<svg
   id="Layer_1"
   data-name="Layer 1"
   viewBox="0 0 28 25"
   version="1.1"
   sodipodi:docname="readme-logo.svg"
   inkscape:version="1.3.2 (091e20e, 2023-11-25)"
   width="28"
   height="25"
   xmlns:inkscape="http://www.inkscape.org/namespaces/inkscape"
   xmlns:sodipodi="http://sodipodi.sourceforge.net/DTD/sodipodi-0.dtd"
   xmlns="http://www.w3.org/2000/svg"
   xmlns:svg="http://www.w3.org/2000/svg">
  <defs
     id="defs1" />
  <sodipodi:namedview
     id="namedview1"
     pagecolor="#ffffff"
     bordercolor="#000000"
     borderopacity="0.25"
     inkscape:showpageshadow="2"
     inkscape:pageopacity="0.0"
     inkscape:pagecheckerboard="0"
     inkscape:deskcolor="#d1d1d1"
     inkscape:lockguides="false"
     inkscape:zoom="15.393884"
     inkscape:cx="19.228416"
     inkscape:cy="12.082721"
     inkscape:window-width="1800"
     inkscape:window-height="1097"
     inkscape:window-x="0"
     inkscape:window-y="44"
     inkscape:window-maximized="0"
     inkscape:current-layer="Layer_1" />
  <path
     d="m 14.981587,13.622882 c -0.151,0.727 -0.733,1.335 -1.454,1.511 -0.741,0.181 -1.436,-0.053 -1.904,-0.515 0.197,0.66 0.454,1.284 0.802,1.825 0.209,0.325 -0.046,0.752 -0.432,0.752 h -1.935 c -0.386,0 -0.641,-0.427 -0.432,-0.752 0.348,-0.541 0.606,-1.165 0.802,-1.825 -0.469,0.462 -1.163,0.696 -1.904,0.515 -0.721,-0.176 -1.303,-0.784 -1.454,-1.511 -0.268,-1.292 0.711,-2.428 1.956,-2.428 0.101,0 0.197,0.015 0.293,0.03 -0.182,-0.302 -0.293,-0.651 -0.293,-1.03 0,-1.1049994 0.895,-1.9999994 2,-1.9999994 1.105,0 2,0.895 2,1.9999994 0,0.378 -0.111,0.728 -0.293,1.03 0.097,-0.014 0.193,-0.03 0.293,-0.03 1.244,0 2.223,1.136 1.956,2.428 z m 5.044,-8.4279994 V 19.194882 c 0,2.757 -2.243,5 -5,5 h -8 c -2.757,0 -5,-2.243 -5,-5 V 5.1948826 c 0,-2.757 2.243,-5.00000001 5,-5.00000001 h 8 c 2.757,0 5,2.24300001 5,5.00000001 z m -2,0 c 0,-1.654 -1.346,-3 -3,-3 h -8 c -1.654,0 -3,1.346 -3,3 V 19.194882 c 0,1.654 1.346,3 3,3 h 8 c 1.654,0 3,-1.346 3,-3 z"
     id="path1" />
  <path
     id="path1-5"
     style="display:inline;fill:#1a1a1a;stroke-width:0.960871"
     d="m 16.27909,-0.04592171 c -0.927427,-0.0209126 -1.83883,0.23067409 -2.621913,0.70841105 l 0.06728,-0.003958 4.47407,1.31590326 0.09498,0.5797889 6.063049,2.7327253 c 1.449042,0.6528385 2.097362,2.3621677 1.444525,3.8111724 L 20.274287,21.364714 c -0.650746,1.444397 -2.351302,2.090929 -3.797319,1.448482 l -0.120708,0.09102 -3.959582,0.180071 3.276896,1.476187 c 2.415296,1.088194 5.265738,0.0071 6.353932,-2.408202 L 27.552324,9.8876636 c 1.088195,-2.4152983 0.0091,-5.2657375 -2.406223,-6.3539328 L 18.137185,0.37754188 C 17.53336,0.10549326 16.902961,-0.031854 16.27909,-0.04592171 Z" />
</svg>
